<svg width="317" height="317" viewBox="0 0 317 317" fill="none" xmlns="http://www.w3.org/2000/svg">
    <g clip-path="url(#clip0_253_3248)">
        <path
            d="M0 200V311C0 314.314 2.68629 317 6 317H161H311C314.314 317 317 314.314 317 311V200V5.99999C317 2.68629 314.314 0 311 0H161H6C2.68629 0 0 2.68629 0 6V200ZM79.4 126.933C79.6667 202 79.6667 202.4 77 201.733C74.3333 201.067 74.3333 200 74.3333 125.733C74.3333 54.8 74.4667 50.5333 76.7333 50.9333C78.8667 51.3333 79 56.1334 79.4 126.933ZM95 53.6C95.4 55.3333 95.6667 89.0667 95.4 128.667L95.0164 197.706C95.007 199.405 93.7495 200.837 92.0667 201.067V201.067V201.067C90.4413 201.279 89 200.013 89 198.374V126.133C89 51.7334 89 50.6667 91.6667 50.6667C93.2667 50.6667 94.6 51.8667 95 53.6ZM110.333 125.867V197.691C110.333 199.636 108.92 201.293 107 201.6V201.6V201.6C105.276 201.945 103.667 200.626 103.667 198.867V128.533C103.667 88 104.067 54 104.467 52.8C104.867 51.6 106.467 50.6667 107.8 50.6667C110.2 50.6667 110.333 52.9333 110.333 125.867ZM124.824 51.2135C125.1 51.4065 125.143 51.7395 125.15 52.076C125.266 57.3197 125.261 100.951 125.133 150.8C125 199.867 125 201.067 122.333 201.733C119.667 202.4 119.667 201.733 119.667 126.533C119.667 51.6 119.667 50.6667 122.333 50.6667C123.416 50.6667 124.354 50.8848 124.824 51.2135ZM242.067 53.6V53.6C241.837 55.3578 240.347 56.6771 238.574 56.691L190.733 57.0667L143 57.3159C141.162 57.3255 139.667 55.8381 139.667 54V54V54C139.667 52.1591 141.159 50.6667 143 50.6667H191.133H239.506C241.072 50.6667 242.278 52.0484 242.067 53.6V53.6ZM242.333 69.3333C242.333 72 241.4 72 191 72C140.6 72 139.667 72 139.667 69.3333C139.667 66.6667 140.6 66.6667 191 66.6667C241.4 66.6667 242.333 66.6667 242.333 69.3333ZM242.333 84.6667V84.6667C242.333 86.5076 240.841 88 239 88H191H143C141.159 88 139.667 86.5076 139.667 84.6667V84.6667V84.6667C139.667 82.8257 141.159 81.3333 143 81.3333H191H239C240.841 81.3333 242.333 82.8257 242.333 84.6667V84.6667ZM242.333 99.3333V99.3333C242.333 101.174 240.841 102.667 239 102.667H191.267C163.133 102.667 139.8 102.267 139.4 101.867C139 101.467 138.867 100 139.267 98.5334C139.933 96.1334 141.667 96 191.133 96H239C240.841 96 242.333 97.4924 242.333 99.3333V99.3333ZM206.333 160V176.667C206.333 179.98 203.647 182.667 200.333 182.667H173H145.667C142.353 182.667 139.667 179.98 139.667 176.667V160V143.333C139.667 140.02 142.353 137.333 145.667 137.333H173H200.333C203.647 137.333 206.333 140.02 206.333 143.333V160ZM94.3871 215.914C94.8148 216.007 95.1515 216.323 95.5777 216.423C96.4842 216.637 98.2367 216.54 100.067 216.133C102.467 215.733 108.867 215.467 114.333 215.467C119.8 215.6 150.867 215.733 183.4 215.867C241.4 216 242.333 216 242.333 218.667C242.333 221.333 241.4 221.333 158.333 221.333C76.3333 221.333 74.3333 221.333 74.3333 218.8C74.3333 217.333 75.4 216 76.6 215.733C80.3276 215.132 91.5376 215.29 94.3871 215.914ZM242.067 234.267V234.267C242.279 235.892 241.013 237.333 239.374 237.333H158.467C76.4667 237.333 74.3333 237.333 74.3333 234.8C74.3333 233.6 74.8692 232.399 75.5754 231.857C75.8696 231.631 76.2433 231.556 76.6132 231.529C81.4709 231.169 117.333 230.941 159.667 231.067L238.706 231.324C240.404 231.329 241.837 232.585 242.067 234.267V234.267ZM242.333 248.667V248.667C242.333 250.508 240.841 252 239 252H158.333H77.6667C75.8257 252 74.3333 250.508 74.3333 248.667V248.667V248.667C74.3333 246.826 75.8257 245.333 77.6667 245.333H158.333H239C240.841 245.333 242.333 246.826 242.333 248.667V248.667ZM242.333 264C242.333 266.667 241.4 266.667 158.333 266.667C75.2667 266.667 74.3333 266.667 74.3333 264C74.3333 261.333 75.2667 261.333 158.333 261.333C241.4 261.333 242.333 261.333 242.333 264Z"
            fill="#B46B41" />
    </g>
    <defs>
        <clipPath id="clip0_253_3248">
            <rect width="317" height="317" rx="158.5" fill="white" />
        </clipPath>
    </defs>
</svg>