<svg width="300" height="300" viewBox="0 0 300 300" fill="none" xmlns="http://www.w3.org/2000/svg">
<path d="M300 0H0V300H300V0Z" fill="#070F12"/>
<path d="M66.9999 235V238.36H51.7599V246.64H66.0399V250.36H51.7599V258.88H67.9599V262.24H47.9199V235H66.9999Z" fill="#BE754C"/>
<path d="M149.04 235V238.36H133.8V246.64H148.08V250.36H133.8V258.88H150V262.24H129.96V235H149.04Z" fill="#BE754C"/>
<path d="M87.34 235H83.74L71.98 262.24H75.46L78.16 255.1H92.2L95.86 262.24H99.46L87.34 235ZM79.84 251.92L85.51 238.72L91.18 251.92H79.84Z" fill="#BE754C"/>
<path d="M121.758 239.066C121.915 238.892 122.03 238.684 122.097 238.46C122.164 238.235 122.179 237.998 122.143 237.766C122.106 237.535 122.019 237.314 121.886 237.121C121.754 236.927 121.58 236.766 121.377 236.648C119.215 235.39 115.133 233.561 110.8 234.46C103.811 235.911 103.36 241.06 103.36 241.06C103.36 241.06 103.13 247.42 108.7 249.34C112.654 250.703 115.84 251.5 117.8 252.681C118.391 252.985 118.886 253.448 119.228 254.018C119.57 254.589 119.747 255.243 119.737 255.908C119.612 257.494 118.27 259.272 113.011 259.478C112.972 259.478 112.938 259.478 112.9 259.478C112.356 259.469 107.953 259.318 106 256.907C105.745 256.611 105.388 256.421 105 256.374L104.948 256.366C104.684 256.324 104.415 256.349 104.164 256.44C103.913 256.531 103.69 256.685 103.514 256.886C103.339 257.088 103.219 257.33 103.163 257.591C103.108 257.852 103.12 258.123 103.199 258.378C103.899 260.491 106.182 263.137 113.371 262.899C124.231 262.539 122.971 254.799 122.971 254.799C122.971 254.799 123.331 249.699 114.451 247.119C108.733 245.458 107.082 243.519 106.751 242.386C106.672 242.116 106.672 241.829 106.751 241.559C107.196 239.947 109.551 234.251 119.888 239.43C120.196 239.582 120.546 239.629 120.884 239.563C121.222 239.498 121.529 239.323 121.758 239.066Z" fill="#BE754C"/>
<path d="M157.9 235H160.96V258.88C160.96 258.61 175.99 258.88 175.99 258.88V262.24H157.9V235Z" fill="#BE754C"/>
<path d="M185.89 235H182.2V262.24H185.89V235Z" fill="#BE754C"/>
<path d="M195.25 262.24H199.3V241.42L215.05 262.24H219.1V235H214.87V256.18L199.12 235H195.25V262.24Z" fill="#BE754C"/>
<path d="M228.19 235H231.88V250.24L246.64 235H250.87L239.53 247.18L252.13 262.24H246.73L237.1 249.7L231.925 254.875V262.24H228.19V235Z" fill="#BE754C"/>
<path d="M89.9204 37.8398H83.4404V152.05H89.9204V37.8398Z" fill="#BE754C"/>
<path d="M89.9204 152.05H83.4404V160.96H89.9204V152.05Z" fill="#B7633E"/>
<path d="M101.2 37.8398H94.7202V152.05H101.2V37.8398Z" fill="#BE754C"/>
<path d="M101.2 152.05H94.7202V160.96H101.2V152.05Z" fill="#B7633E"/>
<path d="M112.9 37.8398H106.42V152.05H112.9V37.8398Z" fill="#BE754C"/>
<path d="M112.9 152.05H106.42V160.96H112.9V152.05Z" fill="#B7633E"/>
<path d="M124.15 37.8398H117.67V152.05H124.15V37.8398Z" fill="#BE754C"/>
<path d="M124.15 152.05H117.67V160.96H124.15V152.05Z" fill="#B7633E"/>
<path d="M133.78 37.8398H124.15V43.9598H133.78V37.8398Z" fill="#B7633E"/>
<path d="M212.71 37.8398H133.78V43.9598H212.71V37.8398Z" fill="#BE754C"/>
<path d="M133.78 48.73H124.15V54.85H133.78V48.73Z" fill="#B7633E"/>
<path d="M212.71 48.73H133.78V54.85H212.71V48.73Z" fill="#BE754C"/>
<path d="M133.78 60.0698H124.15V66.1898H133.78V60.0698Z" fill="#B7633E"/>
<path d="M212.71 60.0698H133.78V66.1898H212.71V60.0698Z" fill="#BE754C"/>
<path d="M133.78 71.4097H124.15V77.5297H133.78V71.4097Z" fill="#B7633E"/>
<path d="M212.71 71.4097H133.78V77.5297H212.71V71.4097Z" fill="#BE754C"/>
<path d="M133.48 102.64H124.15V138.4H133.48V102.64Z" fill="#B7633E"/>
<path d="M185.44 102.64H133.48V138.4H185.44V102.64Z" fill="#BE754C"/>
<path d="M212.68 160.96H83.4404V166.84H212.68V160.96Z" fill="#BE754C"/>
<path d="M212.68 172.12H83.4404V178H212.68V172.12Z" fill="#BE754C"/>
<path d="M212.68 183.28H83.4404V189.16H212.68V183.28Z" fill="#BE754C"/>
<path d="M212.68 194.44H83.4404V200.32H212.68V194.44Z" fill="#BE754C"/>
</svg>
