<svg width="135" height="135" viewBox="0 0 135 135" fill="none" xmlns="http://www.w3.org/2000/svg">
    <rect width="135" height="135" rx="15" fill="#070F13" />
    <path d="M30.15 105.75V107.262H23.292V110.988H29.718V112.662H23.292V116.496H30.582V118.008H21.564V105.75H30.15Z"
        fill="#829299" />
    <path
        d="M67.0679 105.75V107.262H60.2099V110.988H66.6359V112.662H60.2099V116.496H67.4999V118.008H58.4819V105.75H67.0679Z"
        fill="#829299" />
    <path
        d="M39.3031 105.75H37.6831L32.3911 118.008H33.9571L35.1721 114.795H41.4901L43.1371 118.008H44.7571L39.3031 105.75ZM35.9281 113.364L38.4796 107.424L41.0311 113.364H35.9281Z"
        fill="#829299" />
    <path
        d="M54.7909 107.58C55.0915 107.243 55.0096 106.718 54.6194 106.491C53.6465 105.925 51.8096 105.102 49.8598 105.507C46.7147 106.16 46.5118 108.477 46.5118 108.477C46.5118 108.477 46.4083 111.339 48.9148 112.203C50.6941 112.816 52.1278 113.175 53.0111 113.706C53.5363 114.022 53.9309 114.547 53.8828 115.158C53.8265 115.873 53.2226 116.672 50.8561 116.765C50.839 116.765 50.8237 116.766 50.8061 116.765C50.5613 116.761 48.58 116.693 47.7016 115.608C47.5918 115.473 47.4257 115.395 47.2534 115.369L47.2304 115.365C46.7152 115.287 46.2791 115.776 46.4434 116.27C46.7593 117.221 47.7857 118.412 51.0208 118.305C55.9078 118.143 55.3408 114.66 55.3408 114.66C55.3408 114.66 55.5028 112.365 51.5068 111.204C48.9337 110.456 48.1907 109.582 48.04 109.074C48.0035 108.952 48.004 108.825 48.0382 108.702C48.2384 107.977 49.3 105.413 53.9503 107.744C54.2338 107.886 54.5794 107.816 54.7909 107.58V107.58Z"
        fill="#829299" />
    <path
        d="M71.0552 105.75H72.4322C72.4322 105.75 72.4322 116.618 72.4322 116.496C72.4322 116.375 79.1957 116.496 79.1957 116.496V118.008H71.0552V105.75Z"
        fill="#829299" />
    <path d="M83.6502 105.75H81.9897V118.008H83.6502V105.75Z" fill="#829299" />
    <path
        d="M87.8623 118.008H89.6848V108.639L96.7723 118.008H98.5948V105.75H96.6913V115.281L89.6038 105.75H87.8623V118.008Z"
        fill="#829299" />
    <path
        d="M102.686 105.75H104.346V112.608L110.988 105.75H112.892L107.789 111.231L113.459 118.008H111.029L106.695 112.365L104.366 114.694V118.008H102.686V105.75Z"
        fill="#829299" />
    <path d="M40.4638 17.0278H37.5479V68.4223H40.4638V17.0278Z" fill="#BE754B" />
    <path d="M40.4638 68.4224H37.5479V72.4319H40.4638V68.4224Z" fill="#576568" />
    <path d="M45.54 17.0278H42.624V68.4223H45.54V17.0278Z" fill="#BE754B" />
    <path d="M45.54 68.4224H42.624V72.4319H45.54V68.4224Z" fill="#576568" />
    <path d="M50.8047 17.0278H47.8887V68.4223H50.8047V17.0278Z" fill="#BE754B" />
    <path d="M50.8047 68.4224H47.8887V72.4319H50.8047V68.4224Z" fill="#576568" />
    <path d="M55.8672 17.0278H52.9512V68.4223H55.8672V17.0278Z" fill="#BE754B" />
    <path d="M55.8672 68.4224H52.9512V72.4319H55.8672V68.4224Z" fill="#576568" />
    <path d="M60.2007 17.0278H55.8672V19.7818H60.2007V17.0278Z" fill="#515F63" />
    <path d="M95.7192 17.0278H60.2007V19.7818H95.7192V17.0278Z" fill="#BE754B" />
    <path d="M60.2007 21.9282H55.8672V24.6822H60.2007V21.9282Z" fill="#515F63" />
    <path d="M95.7192 21.9282H60.2007V24.6822H95.7192V21.9282Z" fill="#BE754B" />
    <path d="M60.2007 27.0312H55.8672V29.7853H60.2007V27.0312Z" fill="#515F63" />
    <path d="M95.7192 27.0312H60.2007V29.7853H95.7192V27.0312Z" fill="#BE754B" />
    <path d="M60.2007 32.1343H55.8672V34.8883H60.2007V32.1343Z" fill="#515F63" />
    <path d="M95.7192 32.1343H60.2007V34.8883H95.7192V32.1343Z" fill="#BE754B" />
    <path d="M60.0657 46.188H55.8672V62.28H60.0657V46.188Z" fill="#556166" />
    <path d="M83.4479 46.188H60.0659V62.28H83.4479V46.188Z" fill="#BF784F" />
    <path d="M95.7058 72.4316H37.5479V75.0776H95.7058V72.4316Z" fill="#BE754B" />
    <path d="M95.7058 77.4536H37.5479V80.0996H95.7058V77.4536Z" fill="#BE754B" />
    <path d="M95.7058 82.4756H37.5479V85.1216H95.7058V82.4756Z" fill="#BE754B" />
    <path d="M95.7058 87.4976H37.5479V90.1436H95.7058V87.4976Z" fill="#BE754B" />
</svg>